<?xml version="1.0" encoding="UTF-8"?>
<!DOCTYPE svg PUBLIC "-//W3C//DTD SVG 1.1//EN" "http://www.w3.org/Graphics/SVG/1.1/DTD/svg11.dtd">
<svg xmlns="http://www.w3.org/2000/svg" version="1.1" width="309px" height="305px" style="shape-rendering:geometricPrecision; text-rendering:geometricPrecision; image-rendering:optimizeQuality; fill-rule:evenodd; clip-rule:evenodd" xmlns:xlink="http://www.w3.org/1999/xlink">
<g><path style="opacity:0.995" fill="#ff4a3f" d="M 296.5,169.5 C 297.586,169.62 298.253,170.287 298.5,171.5C 297.772,173.155 297.605,174.821 298,176.5C 299.889,172.436 300.889,168.103 301,163.5C 303.265,157.086 305.098,157.086 306.5,163.5C 304.933,165.765 305.6,167.099 308.5,167.5C 308.5,169.5 308.5,171.5 308.5,173.5C 306.029,189.354 301.363,204.687 294.5,219.5C 292.711,221.033 290.711,222.033 288.5,222.5C 290.08,218.032 288.913,217.365 285,220.5C 283.97,220.164 283.47,219.497 283.5,218.5C 281.489,226.169 278.989,233.836 276,241.5C 275.07,244.362 273.403,246.695 271,248.5C 270.073,252.013 269.239,255.513 268.5,259C 264.298,259.487 259.965,260.487 255.5,262C 239.849,274.302 223.516,285.302 206.5,295C 202.885,295.732 199.552,297.065 196.5,299C 191.379,299.178 186.379,300.011 181.5,301.5C 180.558,301.392 179.725,301.059 179,300.5C 173.176,302.2 167.343,303.533 161.5,304.5C 151.167,304.5 140.833,304.5 130.5,304.5C 117.41,302.307 104.41,299.14 91.5,295C 90.6919,294.692 90.0253,294.192 89.5,293.5C 97.4206,292.353 97.4206,291.52 89.5,291C 82.9789,286.493 75.9789,282.827 68.5,280C 63.5399,276.708 59.2066,272.708 55.5,268C 52.5401,266.214 49.5401,265.547 46.5,266C 47.4506,265.282 47.6172,264.449 47,263.5C 45.836,263.165 44.5026,263.165 43,263.5C 42.0206,261.68 40.5206,260.513 38.5,260C 35.1137,255.587 31.4471,251.421 27.5,247.5C 27.7093,246.914 28.0426,246.414 28.5,246C 25.6667,243.167 22.8333,240.333 20,237.5C 9.43909,217.222 2.60575,195.888 -0.5,173.5C -0.5,165.167 -0.5,156.833 -0.5,148.5C 0.482236,147.859 1.48224,147.193 2.5,146.5C 3.35559,151.88 4.35559,157.213 5.5,162.5C 6.5,162.5 7.5,162.5 8.5,162.5C 8.21231,156.771 8.54564,151.104 9.5,145.5C 8.67504,144.614 7.67504,144.281 6.5,144.5C 6.81435,140.807 5.14768,138.473 1.5,137.5C 0.336392,131.528 0.169725,125.528 1,119.5C 2.86484,115.313 4.19817,110.979 5,106.5C 11.9436,102.939 14.1103,104.939 11.5,112.5C 11.3422,114.319 12.0089,115.652 13.5,116.5C 16.6142,108.27 20.2809,100.27 24.5,92.5C 24.1543,91.3044 23.6543,91.3044 23,92.5C 22.6667,91.1667 22.3333,89.8333 22,88.5C 20.7101,90.792 19.0435,92.792 17,94.5C 16.3623,93.3914 15.8623,92.2247 15.5,91C 19.4132,80.1114 24.5798,69.9447 31,60.5C 35.3397,55.8274 40.0064,51.4941 45,47.5C 45.3095,46.2341 45.8095,45.0674 46.5,44C 54.0414,37.98 62.0414,32.48 70.5,27.5C 70.8333,27.6667 71.1667,27.8333 71.5,28C 68.328,29.7519 65.328,31.7519 62.5,34C 60.9427,37.7019 58.6093,40.5352 55.5,42.5C 66.1523,35.5858 77.4856,29.5858 89.5,24.5C 90.3816,23.2402 91.3816,22.0736 92.5,21C 92,20.5 91.5,20 91,19.5C 88.365,20.4735 86.365,22.1402 85,24.5C 84.6924,23.6919 84.1924,23.0253 83.5,22.5C 79.9192,24.6375 76.2525,26.1375 72.5,27C 73.9842,25.4263 75.6508,24.093 77.5,23C 85.0609,20.5528 92.3942,17.5528 99.5,14C 115.828,9.65218 132.495,8.31884 149.5,10C 147.196,10.8952 144.862,11.7285 142.5,12.5C 145.224,14.5398 148.224,15.3731 151.5,15C 151.167,14.6667 150.833,14.3333 150.5,14C 154.402,11.5588 157.402,12.3922 159.5,16.5C 160.548,15.6171 161.715,14.9504 163,14.5C 166.33,17.2907 169.997,18.2907 174,17.5C 192.355,22.1901 210.022,28.5234 227,36.5C 227.5,36.3333 228,36.1667 228.5,36C 223.638,32.3053 218.638,28.8053 213.5,25.5C 219.063,25.7835 223.729,28.2835 227.5,33C 229.5,34 231.5,35 233.5,36C 239.79,40.9914 245.457,46.658 250.5,53C 253.167,55 255.833,57 258.5,59C 260.004,60.4907 260.837,62.324 261,64.5C 261.219,63.062 261.719,61.7287 262.5,60.5C 272.241,74.9842 280.074,90.3175 286,106.5C 285.959,112.292 287.125,117.792 289.5,123C 288.784,128.331 289.617,133.498 292,138.5C 292.301,150.899 293.301,163.232 295,175.5C 296.128,173.655 296.628,171.655 296.5,169.5 Z M 93.5,18.5 C 95.337,18.6395 95.6704,19.3061 94.5,20.5C 93.7025,20.0431 93.3691,19.3764 93.5,18.5 Z M 55.5,42.5 C 55.6107,43.1174 55.944,43.6174 56.5,44C 54.8659,44.4935 53.1992,44.6602 51.5,44.5C 52.287,42.8958 53.6203,42.2291 55.5,42.5 Z M 27.5,69.5 C 30.9001,70.9975 30.5668,72.6642 26.5,74.5C 26.1667,74.3333 25.8333,74.1667 25.5,74C 27.0368,72.8904 27.7035,71.3904 27.5,69.5 Z M 25.5,89.5 C 24.7046,85.6856 26.2046,82.6856 30,80.5C 30.6667,81.5 30.6667,82.5 30,83.5C 28.7225,85.7472 27.2225,87.7472 25.5,89.5 Z M 4.5,168.5 C 3.21214,166.965 3.21214,165.299 4.5,163.5C 5.05216,165.003 5.05216,166.669 4.5,168.5 Z M 4.5,168.5 C 5.94821,171.596 6.44821,174.929 6,178.5C 4.80108,175.274 4.30108,171.941 4.5,168.5 Z M 293.5,178.5 C 294.984,185.288 294.151,191.955 291,198.5C 291.93,191.903 292.764,185.236 293.5,178.5 Z M 288.5,204.5 C 288.231,202.571 288.731,200.905 290,199.5C 290.203,201.391 289.703,203.057 288.5,204.5 Z M 288.5,204.5 C 288.946,207.01 288.28,209.01 286.5,210.5C 286.595,208.214 287.262,206.214 288.5,204.5 Z M 286.5,210.5 C 286.585,213.649 285.585,216.316 283.5,218.5C 283.733,215.458 284.733,212.792 286.5,210.5 Z M 103.5,295.5 C 105.847,294.105 108.181,294.272 110.5,296C 108.153,296.334 105.819,296.167 103.5,295.5 Z M 111.5,297.5 C 119.725,296.682 128.058,297.182 136.5,299C 147.178,299.316 157.844,299.316 168.5,299C 166.567,299.251 164.734,299.751 163,300.5C 157.622,300.067 152.122,300.067 146.5,300.5C 134.805,299.829 123.138,298.829 111.5,297.5 Z"/></g>
<g><path style="opacity:0.593" fill="#ff4a3e" d="M 179.5,13.5 C 171.649,11.4862 163.649,10.3196 155.5,10C 153.956,9.71039 152.623,9.04373 151.5,8C 160.751,7.55899 169.751,8.89232 178.5,12C 179.056,12.3826 179.389,12.8826 179.5,13.5 Z"/></g>
<g><path style="opacity:0.573" fill="#ff4a3e" d="M 179.5,13.5 C 182.187,13.3359 184.854,13.5026 187.5,14C 191.068,15.6181 194.735,16.9515 198.5,18C 202.56,19.6891 206.227,21.8558 209.5,24.5C 199.451,20.7374 189.451,17.0707 179.5,13.5 Z"/></g>
<g><path style="opacity:0.004" fill="#ff3429" d="M 209.5,24.5 C 211.028,24.5173 211.528,25.184 211,26.5C 210.283,25.9558 209.783,25.2891 209.5,24.5 Z"/></g>
<g><path style="opacity:1" fill="#fffdfd" d="M 95.5,104.5 C 115.167,104.5 134.833,104.5 154.5,104.5C 157.625,116.708 161.458,128.708 166,140.5C 171.247,129.262 175.413,117.596 178.5,105.5C 188.149,104.335 197.816,104.168 207.5,105C 196.951,123.929 186.785,143.096 177,162.5C 174.445,183.759 172.945,205.092 172.5,226.5C 158.833,226.5 145.167,226.5 131.5,226.5C 131.13,205.418 129.63,184.418 127,163.5C 117.449,143.172 106.949,123.505 95.5,104.5 Z"/></g>
<g><path style="opacity:0.689" fill="#ff493d" d="M 300.5,152.5 C 306.958,152.769 307.124,155.102 301,159.5C 300.503,157.19 300.337,154.857 300.5,152.5 Z"/></g>
<g><path style="opacity:0.031" fill="#fe403f" d="M 296.5,169.5 C 295.833,168.167 295.833,168.167 296.5,169.5 Z"/></g>
</svg>
